<svg width="28" height="28" viewBox="0 0 28 28" fill="none" xmlns="http://www.w3.org/2000/svg">
<rect width="28" height="28" rx="14" fill="#E8EDF5"/>
<path d="M20.7812 13.75C20.7812 10.0039 17.7461 6.96875 14 6.96875C10.2539 6.96875 7.21875 10.0039 7.21875 13.75C7.21875 17.1406 9.67969 19.957 12.9336 20.4492V15.7188H11.2109V13.75H12.9336V12.2734C12.9336 10.5781 13.9453 9.62109 15.4766 9.62109C16.2422 9.62109 17.0078 9.75781 17.0078 9.75781V11.4258H16.1602C15.3125 11.4258 15.0391 11.9453 15.0391 12.4922V13.75H16.9258L16.625 15.7188H15.0391V20.4492C18.293 19.957 20.7812 17.1406 20.7812 13.75Z" fill="#17479E"/>
</svg>
